<svg width="566" height="501" viewBox="0 0 566 501" fill="none" xmlns="http://www.w3.org/2000/svg">
<g id="#235_couple_hands">
<path id="heart" d="M283.238 85.3722C283.238 85.3722 249.36 63.707 250.13 42.7476C250.9 21.7882 268.887 23.4992 275.025 26.8569C281.163 30.2147 285.12 38.0424 285.12 38.0424C286.376 34.5696 288.624 31.5424 291.586 29.3371C294.549 27.1317 298.093 25.8453 301.78 25.6379C314.762 24.9107 320.323 36.9303 310.934 57.5048C305.304 69.7883 295.486 79.667 283.238 85.3722Z" fill="#FCECDC"/>
<path id="Vector" d="M271.71 220.454C271.71 220.454 282.04 228.88 286.681 231.147C291.322 233.414 300.476 229.714 301.845 233.885C303.213 238.055 304.325 245.947 290.552 249.562C276.779 253.176 270.79 241.798 256.76 235.104" fill="white"/>
<path id="Vector_2" d="M285.505 251.273C278.811 251.273 273.827 247.637 268.245 243.552C264.531 240.669 260.549 238.148 256.354 236.023C256.226 235.963 256.112 235.878 256.017 235.773C255.922 235.669 255.848 235.546 255.801 235.413C255.753 235.28 255.732 235.139 255.739 234.998C255.746 234.857 255.78 234.718 255.841 234.591C255.901 234.463 255.986 234.348 256.091 234.253C256.196 234.158 256.318 234.085 256.451 234.037C256.584 233.989 256.725 233.968 256.866 233.975C257.007 233.982 257.146 234.017 257.274 234.077C261.586 236.268 265.682 238.86 269.507 241.819C276.308 246.803 281.719 250.738 290.317 248.471C295.6 247.102 299.064 244.942 300.626 242.055C301.226 240.825 301.56 239.482 301.604 238.115C301.648 236.747 301.402 235.386 300.882 234.12C300.39 232.644 297.973 232.644 294.338 232.815C291.625 233.178 288.865 232.907 286.275 232.024C281.527 229.778 271.475 221.587 271.047 221.224C270.937 221.136 270.846 221.028 270.779 220.905C270.711 220.782 270.669 220.646 270.655 220.507C270.641 220.367 270.656 220.226 270.697 220.092C270.739 219.958 270.807 219.834 270.897 219.726C270.985 219.616 271.093 219.525 271.216 219.458C271.339 219.391 271.475 219.349 271.614 219.335C271.754 219.321 271.895 219.335 272.029 219.377C272.163 219.418 272.287 219.486 272.394 219.577C272.501 219.577 282.682 227.939 287.194 230.078C289.466 230.801 291.87 231.005 294.231 230.677C297.995 230.506 301.887 230.313 302.914 233.457C303.523 235.001 303.801 236.654 303.731 238.312C303.661 239.97 303.244 241.595 302.508 243.081C300.647 246.482 296.733 248.963 290.873 250.503C289.125 250.994 287.32 251.253 285.505 251.273Z" fill="#231F20"/>
<path id="Vector_3" d="M51.2297 238.718C51.2297 239.959 30.1633 272.039 28.816 269.965C27.4686 267.89 31.5535 256.619 31.5535 256.619C31.5535 256.619 11.5779 273.28 3.2369 268.297C-5.1041 263.314 18.2079 252.492 24.9021 238.718C31.5963 224.945 37.7344 220.389 37.7344 220.389" fill="white"/>
<path id="Vector_4" d="M28.9229 271.12C28.7072 271.123 28.4942 271.072 28.3035 270.971C28.1129 270.87 27.9508 270.723 27.8321 270.542C26.7414 268.831 28.0674 263.677 29.3506 259.72C23.3622 264.19 9.63167 273.387 2.68084 269.216C2.07682 268.904 1.55607 268.451 1.1618 267.897C0.767528 267.343 0.511096 266.703 0.41379 266.03C0.114369 262.757 4.34904 258.993 9.69583 254.245C15.0426 249.497 21.0738 244.172 23.9397 238.248C30.6339 224.389 36.9217 219.726 37.1783 219.534C37.2909 219.448 37.4197 219.386 37.557 219.351C37.6943 219.316 37.8373 219.309 37.9772 219.331C38.1171 219.353 38.2511 219.404 38.3712 219.479C38.4912 219.554 38.5947 219.653 38.6754 219.769C38.8367 219.997 38.9023 220.279 38.8584 220.555C38.8144 220.831 38.6643 221.078 38.4402 221.245C38.4402 221.245 32.3021 225.865 25.8645 239.189C22.8062 245.477 16.6039 250.994 11.1288 255.849C6.59469 259.849 2.33864 263.634 2.5739 265.837C2.5739 266.051 2.57389 266.671 3.83573 267.377C10.1236 271.141 25.5223 260.298 30.9119 255.807C31.0989 255.663 31.3282 255.585 31.5642 255.585C31.8002 255.585 32.0295 255.663 32.2165 255.807C32.4108 255.94 32.5545 256.135 32.6243 256.36C32.6942 256.585 32.6861 256.827 32.6015 257.047C31.1493 260.701 30.1301 264.513 29.5645 268.404C33.9489 264.126 49.1979 241.071 50.139 238.462C50.1516 238.321 50.1918 238.185 50.2572 238.06C50.3226 237.935 50.412 237.824 50.5202 237.734C50.6285 237.643 50.7534 237.575 50.888 237.533C51.0226 237.491 51.1641 237.476 51.3046 237.488C51.445 237.501 51.5816 237.541 51.7065 237.607C51.8314 237.672 51.9422 237.761 52.0325 237.87C52.1229 237.978 52.1911 238.103 52.2331 238.238C52.2752 238.372 52.2903 238.514 52.2777 238.654C52.2777 240.515 32.7512 270.008 29.3934 270.991C29.2457 271.063 29.0862 271.106 28.9229 271.12Z" fill="#231F20"/>
<path id="Vector_5" d="M142.189 288.465C142.189 288.465 115.712 372.345 66.2007 446.195L42.2471 433.555L94.4746 320.203L142.189 288.465Z" fill="white"/>
<path id="Vector_6" d="M66.2008 447.265C66.0284 447.266 65.8588 447.221 65.7089 447.136L41.7552 434.518C41.5179 434.386 41.3382 434.171 41.2512 433.914C41.1642 433.657 41.1762 433.376 41.2847 433.128L93.4908 319.776C93.5889 319.602 93.7196 319.45 93.8758 319.327L141.676 287.588C141.857 287.459 142.074 287.39 142.296 287.39C142.519 287.39 142.735 287.459 142.917 287.588C143.096 287.718 143.229 287.903 143.294 288.116C143.36 288.328 143.355 288.555 143.28 288.764C143.023 289.598 116.204 373.65 67.099 446.751C67.0035 446.904 66.8714 447.032 66.7146 447.121C66.5579 447.211 66.3813 447.26 66.2008 447.265ZM43.6587 433.085L65.7517 444.826C109.232 379.852 135.046 306.494 140.2 291.095L95.2873 321.037L43.6587 433.085Z" fill="#231F20"/>
<path id="Vector_7" d="M177.885 364.817C177.885 364.817 175.126 440.399 188.215 474.341L210.607 471.86C210.607 471.86 222.327 347.964 208.81 334.191C192.642 317.68 160.304 364.368 177.885 364.817Z" fill="white"/>
<path id="Vector_8" d="M188.215 475.41C188.001 475.407 187.793 475.341 187.618 475.219C187.442 475.097 187.308 474.925 187.231 474.726C175.019 443.115 176.537 374.955 176.794 365.801C175.627 365.714 174.52 365.249 173.64 364.478C172.76 363.706 172.156 362.669 171.918 361.523C170.057 353.952 180.472 338.318 191.551 332.159C198.609 328.245 205.004 328.651 209.58 333.335C223.268 347.301 212.147 466.77 211.719 471.838C211.7 472.084 211.596 472.315 211.424 472.491C211.251 472.667 211.023 472.776 210.778 472.801L188.386 475.282L188.215 475.41ZM200.641 331.731C197.803 331.85 195.039 332.673 192.599 334.126C181.905 340.115 172.516 355.086 173.992 361.117C174.42 362.828 175.703 363.683 177.927 363.748C178.069 363.75 178.209 363.782 178.337 363.84C178.466 363.899 178.581 363.984 178.676 364.09C178.775 364.191 178.851 364.312 178.899 364.445C178.947 364.577 178.966 364.719 178.954 364.86C178.954 365.608 176.387 439.48 188.92 473.186L209.623 470.897C213.644 427.952 218.392 345.483 208.062 334.939C207.114 333.92 205.965 333.108 204.688 332.556C203.41 332.004 202.032 331.723 200.641 331.731Z" fill="#231F20"/>
<path id="Vector_9" d="M182.141 462.642L184.707 496.861L206.714 494.723L205.923 491.087C208.395 491.207 210.858 491.464 213.302 491.857C217.772 492.563 248.248 493.867 248.248 488.242C248.248 482.618 221.857 475.41 218.306 472.972C214.756 470.534 219.29 456.739 218.606 457.595C217.921 458.45 182.141 462.642 182.141 462.642Z" fill="#233863"/>
<path id="Vector_10" d="M184.707 498.016C184.455 498.02 184.21 497.928 184.023 497.76C183.914 497.67 183.824 497.559 183.757 497.435C183.691 497.31 183.651 497.173 183.638 497.032L181.093 462.813C181.074 462.537 181.161 462.264 181.335 462.05C181.51 461.835 181.76 461.695 182.034 461.658C194.866 460.182 215.954 457.573 217.985 456.867C218.143 456.759 218.325 456.69 218.515 456.668C218.705 456.646 218.898 456.67 219.076 456.739C219.91 457.145 219.803 457.701 219.333 459.712C217.622 467.069 217.472 471.304 218.862 472.245C221.541 473.574 224.315 474.704 227.161 475.624C239.715 480.244 249.318 484.179 249.318 488.456C249.302 488.873 249.194 489.28 249.001 489.65C248.809 490.02 248.537 490.343 248.206 490.595C242.966 495.086 216.125 493.568 213.131 493.076C210.564 492.691 208.511 492.498 207.271 492.391L207.762 494.68C207.797 494.824 207.797 494.975 207.764 495.12C207.731 495.264 207.664 495.399 207.57 495.514C207.484 495.637 207.373 495.741 207.244 495.818C207.115 495.896 206.971 495.945 206.821 495.963L184.814 498.102L184.707 498.016ZM183.295 463.583L185.691 495.792L205.431 493.846L204.875 491.365C204.844 491.207 204.849 491.044 204.89 490.889C204.931 490.733 205.006 490.589 205.11 490.467C205.213 490.34 205.344 490.24 205.493 490.173C205.641 490.106 205.803 490.075 205.966 490.082C208.482 490.196 210.988 490.46 213.473 490.873C217.75 491.557 242.645 492.456 246.815 488.884C247.179 488.563 247.179 488.371 247.179 488.306C247.179 485.184 233.684 480.201 226.412 477.613C223.395 476.642 220.462 475.426 217.643 473.977C214.756 471.988 215.761 465.722 217.258 459.22C214.029 459.797 205.645 460.995 183.295 463.583Z" fill="#231F20"/>
<path id="Vector_11" d="M70.6706 444.27C69.7082 444.42 40.5361 434.133 40.5361 434.133L28.709 468.074C28.709 468.074 42.5037 474.319 43.9795 473.271C44.8905 472.666 45.6277 471.833 46.1182 470.855C47.3023 473.079 49.2338 474.813 51.5719 475.752C55.0152 476.715 76.7232 483.366 78.3486 480.457C79.9741 477.549 64.447 466.941 64.5325 459.926C64.6181 452.911 70.6706 444.27 70.6706 444.27Z" fill="#233863"/>
<path id="Vector_12" d="M75.6752 482.254C72.1036 482.254 65.3238 480.885 52.4274 477.121L51.2511 476.779C49.1485 476.034 47.3313 474.651 46.054 472.822C45.6326 473.321 45.1513 473.767 44.6211 474.148C44.1292 474.49 42.6321 475.538 28.3027 469.058C28.0611 468.946 27.8689 468.749 27.7626 468.505C27.6562 468.26 27.6429 467.986 27.7252 467.732L39.5523 433.791C39.6522 433.521 39.851 433.299 40.1084 433.17C40.3707 433.074 40.6588 433.074 40.9211 433.17C51.6147 436.935 69.0024 442.966 70.6706 443.244C70.8503 443.24 71.0278 443.283 71.1855 443.37C71.3431 443.456 71.4753 443.582 71.5689 443.736C71.6839 443.91 71.7452 444.115 71.7452 444.324C71.7452 444.533 71.6839 444.737 71.5689 444.912C71.5689 444.912 65.6874 453.467 65.6019 459.883C65.6019 463.348 70.2215 468.245 73.9643 472.181C77.707 476.116 80.3804 478.939 79.2897 480.928C78.8192 481.741 77.8353 482.254 75.6752 482.254ZM46.0754 469.807C46.2673 469.808 46.4554 469.861 46.6206 469.958C46.7858 470.056 46.9224 470.195 47.0164 470.363C48.0734 472.305 49.7753 473.818 51.8285 474.64L53.0262 474.982C73.7504 481.035 76.9371 480.179 77.429 479.794C77.429 478.982 74.4134 475.752 72.3816 473.592C68.1042 469.165 63.3776 464.139 63.4418 459.819C63.4418 454.108 67.2487 447.543 68.9597 444.848C66.2221 444.056 59.2927 441.811 41.1563 435.437L29.9922 467.518C35.7454 470.085 42.3326 472.566 43.4875 472.352C44.1408 471.853 44.6681 471.209 45.0274 470.47C45.1057 470.283 45.2362 470.124 45.4032 470.01C45.5701 469.896 45.7664 469.833 45.9685 469.828L46.0754 469.807Z" fill="#231F20"/>
<path id="Vector_13" d="M196.855 20.7616C179.553 -1.88745 149.311 8.39977 139.88 32.054C135.859 42.1273 133.292 53.2059 126.106 61.333C118.92 69.4601 108.996 73.0532 99.6075 77.6087C90.5295 82.016 81.8804 87.257 73.7718 93.2641C66.0938 98.9531 58.5869 105.754 55.5499 114.822C53.0973 123.236 53.7423 132.251 57.3678 140.23C68.0614 166.023 103.243 161.061 124.352 154.025C136.971 149.748 146.638 143.674 157.011 135.867C172.196 124.425 186.717 117.175 197.432 100.386C201.988 93.2427 205.666 84.7306 203.849 76.4538C203.1 73.1173 201.517 70.0376 200.897 66.6584C199.742 60.5203 201.924 54.3394 203.399 48.3082C205.88 38.299 203.079 28.9528 196.855 20.7616Z" fill="white"/>
<path id="Vector_14" d="M92.8278 160.783C76.6804 160.783 62.4794 155.372 56.4696 140.701C52.7234 132.49 52.0554 123.206 54.5875 114.544C57.9025 104.728 66.2863 97.6057 73.2157 92.4728C81.3662 86.4248 90.0662 81.1547 99.2011 76.7318L103.735 74.5931C111.584 70.9145 119.69 67.129 125.379 60.7128C130.704 54.703 133.506 46.8112 136.201 39.1973C137.078 36.7378 137.976 34.1927 138.96 31.7546C144.136 18.7084 155.77 9.14836 168.603 7.39461C179.916 5.81196 190.268 10.346 197.753 20.2269C204.661 29.2523 206.928 38.8337 204.512 48.736C204.255 49.7198 203.998 50.725 203.72 51.7302C202.437 56.6493 201.09 61.7394 201.988 66.7012C202.359 68.4122 202.859 70.0924 203.485 71.7272C204.082 73.2733 204.568 74.86 204.939 76.4752C206.543 83.704 204.405 91.7884 198.395 101.22C190.054 114.266 179.446 121.666 168.196 129.494C164.774 131.868 161.245 134.327 157.716 136.979C147.215 144.893 137.591 151.031 124.759 155.308C114.468 158.796 103.693 160.644 92.8278 160.783ZM172.837 9.19113C171.492 9.18941 170.148 9.28231 168.816 9.46916C156.754 11.1374 145.782 20.1627 140.863 32.5031C139.901 34.9199 139.003 37.4436 138.147 39.8817C135.367 47.688 132.501 55.7724 126.898 62.103C120.931 68.84 112.611 72.7966 104.569 76.4966C103.051 77.2023 101.554 77.9081 100.078 78.6353C91.0589 83.01 82.467 88.2153 74.4134 94.1838C67.7406 99.1242 59.6776 105.989 56.5551 115.229C54.178 123.398 54.8156 132.15 58.3516 139.888C67.7834 162.601 98.4526 161.596 124.01 153.084C136.586 148.807 146.039 142.861 156.369 135.097C159.941 132.403 163.491 129.943 166.913 127.548C177.97 119.848 188.428 112.577 196.534 99.8727C202.223 90.9543 204.276 83.3832 202.801 76.7318C202.439 75.2051 201.975 73.7045 201.41 72.2405C200.755 70.5077 200.233 68.7274 199.849 66.9151C198.844 61.5469 200.255 56.2215 201.603 51.0886C201.86 50.0834 202.138 49.0996 202.373 48.1158C204.64 38.8765 202.501 29.8939 195.957 21.4032C193.338 17.6897 189.879 14.6478 185.861 12.5255C181.843 10.4032 177.381 9.26072 172.837 9.19113Z" fill="#231F20"/>
<path id="Vector_15" d="M205.217 83.9179C205.089 81.7792 141.398 61.5469 120.503 81.052C99.6075 100.557 113.039 208.263 113.039 208.263C113.039 208.263 143.879 217.93 168.496 210.209C193.112 202.488 196.299 193.335 196.299 193.335C204.467 157.473 207.47 120.629 205.217 83.9179Z" fill="#AFC3FE"/>
<path id="Vector_16" d="M196.171 193.335L242.196 398.331C242.431 398.331 208.105 415.89 152.37 416.381C74.9267 417.087 42.2257 364.197 42.2257 364.197L110.665 183.497C110.665 183.497 168.389 210.209 196.171 193.335Z" fill="#233863"/>
<path id="Vector_17" d="M150.787 417.472C74.7128 417.472 41.5841 365.287 41.2633 364.753C41.1899 364.607 41.1517 364.446 41.1517 364.282C41.1517 364.119 41.1899 363.958 41.2633 363.812L109.702 183.133C109.754 182.994 109.833 182.867 109.936 182.76C110.039 182.653 110.164 182.569 110.301 182.513C110.432 182.454 110.574 182.424 110.718 182.424C110.862 182.424 111.004 182.454 111.135 182.513C111.713 182.769 168.881 208.798 195.807 192.415C195.953 192.331 196.119 192.286 196.288 192.286C196.457 192.286 196.623 192.331 196.769 192.415C196.922 192.48 197.058 192.579 197.165 192.705C197.273 192.832 197.35 192.981 197.39 193.142L243.415 398.138C243.479 398.362 243.479 398.599 243.415 398.823C242.966 399.785 207.591 417.002 152.541 417.494L150.787 417.472ZM43.3592 364.004C50.4241 373.93 59.0986 382.604 69.0238 389.669C85.1712 401.539 112.739 415.569 152.434 415.333C203.164 414.863 236.122 400.149 241.148 397.753L195.615 194.981C183.809 201.398 166.057 201.697 142.81 195.773C131.978 192.99 121.38 189.365 111.114 184.93L43.3592 364.004Z" fill="#231F20"/>
<path id="Vector_18" d="M177.82 77.8012L177.2 95.4242C177.2 95.4242 174.655 103.402 162.956 100.236C151.258 97.071 149.718 88.9439 149.718 88.9439L152.049 56.1146C152.049 56.1146 170.741 46.7898 168.667 27.7766C170.863 32.2247 174.374 35.8894 178.724 38.2731C183.075 40.6568 188.053 41.644 192.984 41.1008C192.909 49.8001 192.287 58.4862 191.123 67.1076C189.476 76.1972 177.82 77.8012 177.82 77.8012Z" fill="white"/>
<path id="Vector_19" d="M168.004 102.054C166.203 102.03 164.412 101.771 162.678 101.284C150.466 97.9906 148.734 89.4999 148.67 89.1363C148.658 89.044 148.658 88.9506 148.67 88.8583L151.001 56.0504C151.009 55.8658 151.067 55.6869 151.169 55.5325C151.271 55.3782 151.412 55.2542 151.578 55.1735C151.771 55.0666 169.608 45.9342 167.64 27.8835C167.604 27.743 167.595 27.5968 167.615 27.4531C167.635 27.3094 167.683 27.171 167.757 27.0459C167.83 26.9208 167.928 26.8113 168.043 26.7239C168.159 26.6364 168.291 26.5726 168.431 26.5361C168.572 26.4996 168.718 26.4911 168.862 26.5111C169.006 26.5311 169.144 26.5792 169.269 26.6527C169.394 26.7262 169.504 26.8236 169.591 26.9393C169.679 27.0551 169.742 27.187 169.779 27.3274C171.854 31.5927 175.205 35.107 179.366 37.3832C183.528 39.6594 188.294 40.5849 193.005 40.0314C193.309 40.015 193.607 40.1143 193.839 40.3094C193.948 40.4151 194.034 40.5415 194.093 40.6811C194.152 40.8207 194.182 40.9707 194.182 41.1221C194.118 49.8795 193.489 58.6236 192.3 67.3C190.802 75.5982 181.884 77.9936 178.975 78.6994L178.398 95.4669C178.408 95.5593 178.408 95.6526 178.398 95.745C177.563 97.7667 176.105 99.4691 174.235 100.604C172.366 101.739 170.182 102.247 168.004 102.054ZM150.894 88.8583C151.151 89.8635 153.033 96.4507 163.341 99.2097C173.179 101.862 175.874 96.1727 176.174 95.2103L176.772 77.7584C176.781 77.5087 176.878 77.2702 177.047 77.0859C177.215 76.9016 177.444 76.7836 177.692 76.7532C177.692 76.7532 188.6 75.1063 190.097 66.9151C191.216 58.7412 191.823 50.5053 191.915 42.2556C187.652 42.5524 183.385 41.7413 179.529 39.9012C175.673 38.0611 172.358 35.2546 169.907 31.7545C169.287 46.7256 155.984 55.1521 153.097 56.7775L150.894 88.8583Z" fill="#231F20"/>
<path id="Vector_20" d="M157.631 55.3233C157.068 53.3172 155.837 51.5638 154.141 50.354C152.445 49.1441 150.386 48.5506 148.306 48.6718C143.173 49.3349 143.066 55.088 144.563 58.8949C145.016 60.045 145.692 61.094 146.552 61.9812C147.412 62.8684 148.44 63.5761 149.576 64.0634C150.712 64.5507 151.933 64.8079 153.169 64.8202C154.404 64.8324 155.63 64.5995 156.775 64.1348" fill="white"/>
<path id="Vector_21" d="M153.225 65.8457C151.43 65.7943 149.676 65.2988 148.12 64.4037C146.563 63.5085 145.253 62.2416 144.306 60.7161C143.359 59.1906 142.805 57.4543 142.693 55.6622C142.581 53.8702 142.915 52.0783 143.665 50.447C144.137 49.6501 144.793 48.9779 145.578 48.4867C146.363 47.9955 147.255 47.6997 148.178 47.6239C150.522 47.458 152.851 48.1117 154.767 49.4732C156.682 50.8348 158.065 52.8195 158.679 55.088C158.741 55.3716 158.688 55.6684 158.532 55.9131C158.376 56.1577 158.128 56.3302 157.845 56.3926C157.561 56.455 157.264 56.4022 157.02 56.2458C156.775 56.0893 156.603 55.8421 156.54 55.5585C156.033 53.8145 154.953 52.292 153.475 51.2367C151.997 50.1813 150.206 49.6545 148.392 49.7412C147.797 49.7825 147.221 49.9651 146.712 50.2738C146.202 50.5826 145.773 51.0086 145.462 51.5163C144.98 52.6154 144.731 53.8024 144.731 55.0024C144.731 56.2025 144.98 57.3895 145.462 58.4886C145.866 59.5042 146.468 60.4296 147.232 61.2114C147.996 61.9932 148.908 62.6159 149.914 63.0434C150.92 63.4709 152.001 63.6949 153.094 63.7023C154.188 63.7098 155.272 63.5006 156.284 63.0868C156.412 63.0311 156.551 63.002 156.692 63.001C156.832 63 156.971 63.0273 157.101 63.0811C157.231 63.135 157.348 63.2144 157.446 63.3145C157.545 63.4147 157.622 63.5336 157.674 63.6642C157.729 63.7932 157.759 63.9319 157.76 64.0724C157.76 64.2128 157.733 64.3519 157.679 64.4816C157.626 64.6113 157.546 64.7288 157.446 64.8272C157.346 64.9256 157.227 65.0029 157.096 65.0544C155.87 65.5695 154.555 65.8384 153.225 65.8457Z" fill="#231F20"/>
<path id="Vector_22" d="M177.885 49.3134C177.885 49.3134 184.151 58.4672 182.697 60.007C181.242 61.5469 177.136 60.6059 177.136 60.6059" fill="white"/>
<path id="Vector_23" d="M179.767 61.9961C178.793 61.9882 177.824 61.8662 176.879 61.6325C176.605 61.5665 176.367 61.3945 176.219 61.154C176.071 60.9136 176.024 60.6243 176.088 60.3493C176.159 60.073 176.335 59.8354 176.579 59.6875C176.823 59.5396 177.115 59.4931 177.393 59.5579C178.804 59.9215 181.221 60.0712 181.905 59.3013C182.098 58.4672 179.767 53.9973 177.008 49.8482C176.85 49.6116 176.79 49.3227 176.842 49.0431C176.894 48.7634 177.053 48.5151 177.286 48.3511C177.524 48.1983 177.811 48.142 178.089 48.1937C178.367 48.2453 178.615 48.401 178.783 48.6291C181.841 53.1204 185.199 58.8735 183.488 60.7342C182.986 61.1858 182.397 61.5305 181.757 61.7474C181.117 61.9644 180.44 62.0489 179.767 61.9961Z" fill="#231F20"/>
<path id="Vector_24" d="M172.794 47.7308C173.586 47.7308 174.227 46.2371 174.227 44.3944C174.227 42.5518 173.586 41.058 172.794 41.058C172.003 41.058 171.361 42.5518 171.361 44.3944C171.361 46.2371 172.003 47.7308 172.794 47.7308Z" fill="#231F20"/>
<path id="Vector_25" d="M187.316 50.2331C188.108 50.2331 188.749 48.7393 188.749 46.8967C188.749 45.0541 188.108 43.5603 187.316 43.5603C186.525 43.5603 185.883 45.0541 185.883 46.8967C185.883 48.7393 186.525 50.2331 187.316 50.2331Z" fill="#231F20"/>
<path id="Vector_26" d="M177.82 77.8012C172.595 78.1206 167.43 76.5407 163.277 73.3527C163.277 73.3527 165.844 85.8428 177.5 87.3399L177.82 77.8012Z" fill="#231F20"/>
<path id="Vector_27" d="M177.414 88.4092C165.159 86.8265 162.315 73.6948 162.293 73.5665C162.245 73.3575 162.263 73.1387 162.343 72.9398C162.423 72.741 162.563 72.5715 162.742 72.4544C162.919 72.3348 163.128 72.271 163.341 72.271C163.555 72.271 163.763 72.3348 163.94 72.4544C167.894 75.4545 172.777 76.9686 177.735 76.7318C177.888 76.7089 178.043 76.7201 178.191 76.7644C178.339 76.8088 178.475 76.8853 178.59 76.9885C178.706 77.094 178.799 77.2229 178.861 77.3666C178.924 77.5104 178.956 77.6657 178.954 77.8226L178.633 87.3612C178.626 87.5092 178.588 87.6541 178.522 87.7866C178.455 87.9192 178.362 88.0365 178.248 88.1312C178.138 88.2352 178.006 88.3139 177.862 88.3619C177.718 88.4099 177.565 88.426 177.414 88.4092ZM165.074 75.7908C165.937 78.3181 167.424 80.5863 169.399 82.3848C171.373 84.1832 173.769 85.4536 176.366 86.078L176.623 78.9561C172.589 78.9307 168.634 77.8386 165.159 75.7908H165.074Z" fill="#231F20"/>
<path id="Vector_28" d="M177.542 69.781C175.396 69.8385 173.29 69.1843 171.554 67.9203C166.293 64.0278 166.485 55.473 166.485 55.088C166.511 54.8099 166.64 54.5513 166.845 54.3619C167.05 54.1724 167.318 54.0654 167.597 54.0614C167.737 54.0641 167.874 54.0947 168.002 54.1513C168.129 54.2079 168.244 54.2893 168.34 54.3909C168.436 54.4925 168.51 54.6122 168.559 54.7429C168.607 54.8736 168.63 55.0127 168.624 55.1521C168.624 55.1521 168.474 62.9585 172.901 66.1879C175.211 67.8989 178.505 68.07 182.654 66.7012C182.92 66.6125 183.211 66.6324 183.463 66.7564C183.716 66.8805 183.909 67.0988 184.001 67.3642C184.048 67.4975 184.067 67.6388 184.057 67.7796C184.048 67.9204 184.01 68.0578 183.946 68.1837C183.882 68.3095 183.793 68.4211 183.685 68.5118C183.577 68.6026 183.452 68.6705 183.317 68.7116C181.464 69.385 179.513 69.7464 177.542 69.781Z" fill="#231F20"/>
<path id="Vector_29" d="M205.217 466.919C204.939 466.914 204.673 466.803 204.474 466.608C204.276 466.413 204.159 466.149 204.148 465.871C204.153 465.591 204.264 465.323 204.458 465.12C204.652 464.918 204.916 464.797 205.196 464.781L212.339 464.674C212.621 464.673 212.892 464.782 213.096 464.978C213.299 465.173 213.419 465.44 213.43 465.722C213.433 465.862 213.408 466.002 213.357 466.133C213.306 466.263 213.229 466.383 213.132 466.484C213.035 466.585 212.918 466.667 212.79 466.723C212.661 466.779 212.523 466.81 212.382 466.812L205.239 466.919H205.217Z" fill="#231F20"/>
<path id="Vector_30" d="M205.367 474.084L204.918 471.945L212.81 470.213C213.093 470.151 213.39 470.203 213.635 470.36C213.88 470.516 214.052 470.763 214.114 471.047C214.177 471.331 214.124 471.627 213.968 471.872C213.811 472.117 213.564 472.289 213.28 472.352L205.367 474.084Z" fill="#231F20"/>
<path id="Vector_31" d="M120.396 81.052C120.396 81.052 45.2627 195.495 28.7304 230.634L53.5823 244.963L129.55 138.327C129.55 138.327 132.501 87.9173 120.396 81.052Z" fill="#AFC3FE"/>
<path id="Vector_32" d="M205.217 83.9179C208.404 93.2641 236.806 179.69 243.714 188.073C249.425 195.046 277.934 219.427 277.934 219.427L258.322 243.659C258.322 243.659 228.38 227.255 215.227 208.113C208.126 197.762 202.394 177.102 199.721 168.91C192.171 145.556 205.217 83.9179 205.217 83.9179Z" fill="#AFC3FE"/>
<path id="Vector_33" d="M69.6441 223.491C69.4228 223.49 69.2068 223.423 69.0239 223.298C68.7949 223.131 68.64 222.881 68.5921 222.602C68.5442 222.322 68.607 222.035 68.7672 221.801L124.224 143.973C124.303 143.858 124.404 143.76 124.522 143.685C124.639 143.609 124.771 143.558 124.908 143.534C125.045 143.511 125.186 143.514 125.322 143.546C125.458 143.577 125.587 143.635 125.7 143.716C125.816 143.797 125.914 143.901 125.99 144.02C126.065 144.139 126.116 144.272 126.14 144.412C126.164 144.551 126.16 144.693 126.129 144.831C126.097 144.969 126.039 145.099 125.957 145.214L70.4782 223.041C70.3842 223.177 70.2597 223.288 70.1148 223.366C69.9699 223.444 69.8086 223.486 69.6441 223.491Z" fill="#231F20"/>
<path id="Vector_34" d="M198.267 188.18H198.095C197.957 188.16 197.824 188.111 197.705 188.038C197.585 187.966 197.481 187.869 197.4 187.756C197.318 187.642 197.26 187.513 197.229 187.377C197.198 187.24 197.194 187.099 197.219 186.961C197.325 186.32 207.656 122.65 202.694 91.0184C202.651 90.7348 202.723 90.4459 202.893 90.2153C203.064 89.9847 203.319 89.8312 203.603 89.7887C203.886 89.7461 204.175 89.818 204.406 89.9885C204.636 90.1589 204.79 90.414 204.832 90.6976C209.837 122.65 199.443 186.662 199.336 187.303C199.294 187.555 199.163 187.782 198.966 187.943C198.77 188.105 198.521 188.189 198.267 188.18Z" fill="#231F20"/>
<path id="Vector_35" d="M320.836 129.408C320.836 129.408 295.792 152.785 293.568 159.628C291.343 166.472 283.045 236.387 283.045 236.387C283.045 236.387 282.789 248.535 280.115 253.646C277.442 258.758 289.461 263.335 298.187 257.796C306.913 252.256 303.106 237.029 303.106 237.029C303.106 237.029 319.81 167.413 320.986 168.012C322.162 168.611 341.047 150.71 341.047 150.71L320.836 129.408Z" fill="white"/>
<path id="Vector_36" d="M289.269 261.367C286.043 261.503 282.874 260.487 280.329 258.501C279.534 257.887 278.98 257.013 278.765 256.031C278.55 255.05 278.687 254.024 279.153 253.133C281.698 248.321 281.976 236.473 281.976 236.366C282.318 233.393 290.317 166.152 292.541 159.372C294.765 152.592 319.083 129.665 320.109 128.703C320.309 128.507 320.578 128.397 320.858 128.397C321.138 128.397 321.406 128.507 321.606 128.703L341.839 149.983C341.934 150.086 342.008 150.207 342.056 150.34C342.104 150.472 342.124 150.612 342.117 150.753C342.11 151.034 341.995 151.303 341.796 151.501C327.851 164.697 323.36 168.162 321.649 168.911C319.917 172.782 310.378 211.321 304.219 237.05C304.71 239.189 307.491 253.176 298.765 258.715C295.911 260.472 292.62 261.391 289.269 261.367ZM320.794 130.906C313.394 137.878 296.263 154.752 294.573 159.949C292.434 166.622 284.179 235.81 284.115 236.515C284.05 237.221 283.815 248.877 281.056 254.138C280.811 254.609 280.749 255.155 280.883 255.669C281.018 256.183 281.339 256.628 281.783 256.919C284.478 259.4 291.793 260.576 297.61 256.919C305.587 251.871 302.123 237.456 302.08 237.307C302.037 237.138 302.037 236.962 302.08 236.793C318.569 167.948 319.874 167.349 320.494 167.05C320.649 167.018 320.81 167.018 320.965 167.05C322.761 166.216 332.557 157.34 339.55 150.774L320.794 130.906Z" fill="#231F20"/>
<path id="Vector_37" d="M308.902 414.05L293.354 435.202L318.847 451.007L336.321 427.717L308.902 414.05Z" fill="white"/>
<path id="Vector_38" d="M318.847 452.077C318.645 452.078 318.446 452.027 318.27 451.927L292.905 436.122C292.657 435.957 292.482 435.705 292.413 435.416C292.369 435.117 292.437 434.812 292.605 434.561L308.154 413.409C308.309 413.211 308.527 413.071 308.771 413.013C309.016 412.955 309.273 412.981 309.501 413.088L336.898 426.84C337.039 426.912 337.162 427.015 337.258 427.141C337.354 427.267 337.421 427.412 337.454 427.567C337.492 427.718 337.495 427.876 337.461 428.028C337.428 428.18 337.359 428.323 337.262 428.444L319.81 451.649C319.698 451.796 319.552 451.912 319.384 451.987C319.215 452.061 319.031 452.092 318.847 452.077ZM294.915 434.967L318.569 449.596L334.695 428.209L309.223 415.376C306.785 418.734 297.503 431.353 294.915 434.903V434.967Z" fill="#231F20"/>
<path id="Vector_39" d="M293.354 435.202C293.354 435.202 280.094 452.312 280.65 453.381C281.206 454.451 340.534 499.321 341.069 495.322C341.603 491.322 318.847 451.007 318.847 451.007L293.354 435.202Z" fill="#233863"/>
<path id="Vector_40" d="M340.662 496.648C339.422 496.648 335.016 495.15 308.582 476.009C299.021 469.058 280.115 454.943 279.581 453.873C279.238 453.189 278.725 452.162 292.413 434.625C292.577 434.418 292.813 434.28 293.073 434.236C293.334 434.193 293.602 434.247 293.824 434.389L319.297 450.195C319.454 450.283 319.58 450.418 319.66 450.58C323.488 457.359 342.566 491.408 342.01 495.493C341.968 495.781 341.836 496.048 341.632 496.256C341.428 496.463 341.163 496.601 340.876 496.648H340.662ZM281.826 453.06C286.874 457.637 332.129 491.258 339.871 494.295C338.524 489.397 328.065 469.529 318.056 451.777L293.611 436.614C289.378 441.872 285.444 447.362 281.826 453.06Z" fill="#231F20"/>
<path id="Vector_41" d="M477.048 456.44C477.882 458.108 487.892 477.271 487.892 477.271L514.54 464.075L501.708 438.047L477.048 456.44Z" fill="white"/>
<path id="Vector_42" d="M487.892 478.34C487.694 478.34 487.5 478.286 487.33 478.185C487.161 478.083 487.022 477.937 486.929 477.763C486.523 476.993 476.92 458.514 476.107 456.932C475.994 456.707 475.962 456.45 476.017 456.204C476.071 455.959 476.209 455.74 476.407 455.584L500.981 437.255C501.108 437.161 501.254 437.096 501.41 437.067C501.566 437.037 501.726 437.043 501.879 437.084C502.029 437.122 502.17 437.19 502.292 437.286C502.413 437.382 502.513 437.503 502.585 437.64L515.417 463.669C515.475 463.796 515.505 463.935 515.505 464.075C515.505 464.215 515.475 464.354 515.417 464.481C515.375 464.616 515.306 464.74 515.214 464.847C515.122 464.954 515.009 465.04 514.882 465.101L488.234 478.233C488.125 478.285 488.01 478.321 487.892 478.34ZM478.417 456.76C480.192 460.204 486.544 472.373 488.341 475.859L513.193 463.647L501.323 439.736L478.417 456.76Z" fill="#231F20"/>
<path id="Vector_43" d="M367.931 259.849C367.931 259.849 354.265 337.313 349.025 351.471C343.785 365.63 295.3 419.44 295.3 419.44C295.3 419.44 330.867 443.671 332.086 443.843C333.305 444.014 392.334 400.534 401.017 381.478C409.7 362.422 431.772 289.213 431.772 289.213L367.931 259.849Z" fill="#233863"/>
<path id="Vector_44" d="M331.958 444.826C330.76 444.655 311.062 431.374 294.744 420.253C294.618 420.17 294.512 420.059 294.434 419.93C294.356 419.8 294.309 419.655 294.295 419.504C294.271 419.351 294.281 419.195 294.325 419.047C294.37 418.899 294.447 418.763 294.552 418.649C295.043 418.114 342.929 364.86 348.02 351.044C353.11 337.228 366.733 260.383 366.862 259.614C366.897 259.454 366.964 259.303 367.06 259.171C367.156 259.039 367.277 258.927 367.418 258.844C367.565 258.775 367.726 258.739 367.888 258.739C368.051 258.739 368.211 258.775 368.359 258.844L432.221 288.208C432.454 288.312 432.642 288.497 432.748 288.73C432.855 288.962 432.872 289.225 432.798 289.47C432.584 290.219 410.598 362.978 401.979 381.863C393.852 399.764 335.209 444.826 331.958 444.826ZM296.904 419.162C310.079 428.123 328.985 440.913 332.086 442.688C337.198 439.651 391.97 398.887 400.055 381.05C408.139 363.213 427.858 298.217 430.488 289.812L368.722 261.431C366.819 272.125 354.928 338.639 350.009 351.878C345.089 365.116 303.598 411.89 296.904 419.162Z" fill="#231F20"/>
<path id="Vector_45" d="M349.174 228.025C349.174 228.025 347.036 241.221 357.922 270.949C368.808 300.677 471.274 464.139 471.274 464.139L514.583 447.928L425.206 228.025H349.174Z" fill="#233863"/>
<path id="Vector_46" d="M471.231 465.208C471.047 465.205 470.867 465.157 470.707 465.067C470.546 464.978 470.41 464.85 470.311 464.695C466.141 458.022 367.653 300.784 356.959 271.312C346.266 241.841 348.084 228.41 348.169 227.854C348.21 227.604 348.337 227.377 348.529 227.213C348.721 227.048 348.965 226.957 349.217 226.955H425.249C425.46 226.953 425.668 227.016 425.843 227.134C426.019 227.253 426.155 227.421 426.232 227.618L515.567 447.543C515.673 447.803 515.673 448.095 515.567 448.355C515.447 448.617 515.233 448.823 514.968 448.933L471.637 465.144L471.231 465.208ZM350.137 229.094C349.923 232.516 349.902 245.797 358.927 270.585C369.214 298.838 464.173 450.858 471.659 462.834L513.15 447.329L424.5 229.18L350.137 229.094Z" fill="#231F20"/>
<path id="Vector_47" d="M459.981 141.535C459.981 141.535 479.978 232.345 488.726 239.916C497.473 247.487 507.867 262.822 508.295 269.067C508.723 275.312 499.954 279.889 495.805 276.574C491.656 273.259 484.149 262.929 484.149 262.929C484.149 262.929 485.389 277.771 482.459 274.05C479.529 270.328 475.209 249.989 475.209 249.989C475.209 249.989 429.205 157.062 415.325 136.637L459.981 141.535Z" fill="white"/>
<path id="Vector_48" d="M499.27 278.691C497.774 278.724 496.311 278.249 495.12 277.343C491.554 273.998 488.311 270.325 485.432 266.372C485.817 274.777 484.363 275.333 483.828 275.547C483.293 275.761 482.502 275.761 481.689 274.627C478.759 270.906 474.824 252.941 474.268 250.289C472.364 246.46 427.965 156.977 414.384 137.193C414.273 137.021 414.215 136.821 414.215 136.616C414.215 136.411 414.273 136.211 414.384 136.038C414.488 135.864 414.641 135.723 414.822 135.632C415.004 135.542 415.208 135.504 415.41 135.525L460.152 140.487C460.376 140.512 460.587 140.605 460.755 140.755C460.924 140.904 461.042 141.102 461.093 141.321C466.633 166.472 482.481 233.072 489.474 239.039C498.542 246.824 509.001 262.458 509.428 268.981C509.444 270.779 508.94 272.543 507.976 274.061C507.012 275.579 505.63 276.786 503.996 277.536C502.537 278.297 500.915 278.694 499.27 278.691ZM484.149 261.795C484.315 261.797 484.478 261.836 484.626 261.91C484.774 261.984 484.904 262.091 485.004 262.223C485.004 262.223 492.468 272.467 496.468 275.675C497.431 276.274 498.542 276.592 499.676 276.592C500.81 276.592 501.921 276.274 502.884 275.675C504.125 275.112 505.184 274.213 505.94 273.079C506.696 271.945 507.119 270.621 507.161 269.259C506.776 263.335 496.468 248.214 487.913 240.857C479.358 233.5 461.158 151.822 459.104 142.519L417.399 137.899C432.563 161.425 475.722 248.556 476.171 249.455C476.181 249.54 476.181 249.626 476.171 249.711C477.326 255.122 480.727 269.452 482.994 273.002C483.344 269.66 483.344 266.291 482.994 262.95C482.974 262.718 483.03 262.487 483.154 262.29C483.277 262.093 483.461 261.942 483.678 261.859L484.149 261.795Z" fill="#231F20"/>
<path id="Vector_49" d="M447.62 85.0942C447.62 85.0942 383.458 80.9665 363.547 88.452C343.635 95.9375 306.7 139.46 306.7 139.46L333.262 165.638L351.163 150.218C351.163 150.218 343.592 175.348 325.948 232.601L435.322 235.874L442.893 149.534L463.51 147.096C463.51 147.096 460.452 98.8461 447.62 85.0942Z" fill="#AFC3FE"/>
<path id="Vector_50" d="M398.194 89.885L378.325 237.221L407.861 240.729L425.206 83.7468L398.194 89.885Z" fill="#233863"/>
<path id="Vector_51" d="M407.861 241.798H407.732L378.197 238.29C378.057 238.278 377.921 238.236 377.799 238.166C377.677 238.095 377.572 237.999 377.491 237.884C377.404 237.773 377.34 237.646 377.304 237.51C377.267 237.374 377.258 237.232 377.277 237.093L397.146 89.7994C397.175 89.585 397.268 89.3844 397.413 89.224C397.558 89.0637 397.748 88.9511 397.959 88.9011L424.971 82.7844C425.135 82.7466 425.306 82.7483 425.469 82.7892C425.633 82.83 425.784 82.909 425.912 83.0196C426.037 83.1364 426.134 83.2795 426.197 83.4386C426.26 83.5976 426.286 83.7686 426.275 83.9393L408.909 240.9C408.896 241.04 408.855 241.177 408.789 241.302C408.723 241.427 408.633 241.537 408.524 241.627C408.327 241.754 408.094 241.814 407.861 241.798ZM379.523 236.28L406.92 239.51L424.03 85.0942L399.199 90.7404L379.523 236.28Z" fill="#231F20"/>
<path id="Vector_52" d="M426.083 70.7861C428.47 71.2877 430.951 71.1174 433.247 70.2942C434.042 70.0657 434.75 69.6038 435.279 68.9682C435.532 68.6447 435.67 68.2456 435.67 67.8347C435.67 67.4238 435.532 67.0248 435.279 66.7012C434.338 65.7174 432.264 66.359 431.643 65.1399C437.418 59.0018 440.305 48.8001 440.498 40.5661C440.627 30.8739 438.294 21.3075 433.718 12.7627C432.436 9.8722 430.321 7.42971 427.644 5.74776C426.3 4.93103 424.716 4.60212 423.158 4.81635C421.6 5.03058 420.163 5.77489 419.089 6.92405C413.978 1.89807 406.257 0.336804 399.092 1.342C392.505 2.28304 386.944 5.27724 381.02 8.0148C375.334 10.3345 369.311 11.7211 363.183 12.1211C362.916 12.0668 362.639 12.0834 362.38 12.1693C362.121 12.2552 361.89 12.4074 361.708 12.6108C361.526 12.8141 361.401 13.0615 361.345 13.3283C361.288 13.5951 361.303 13.8721 361.387 14.1315C361.835 17.1043 362.87 19.9585 364.43 22.5284C365.991 25.0983 368.046 27.3329 370.476 29.1025C369.083 29.3808 367.637 29.2085 366.348 28.6106C366.926 34.043 373.043 36.9089 378.368 38.1921C382.239 39.1331 386.923 39.9458 389.96 42.7048C393.382 45.7418 395.841 50.3828 398.985 53.8261C403.929 59.4358 410.202 63.7156 417.228 66.2734C419.816 67.1931 420.458 68.4122 422.725 69.674C423.789 70.1949 424.918 70.5691 426.083 70.7861Z" fill="white"/>
<path id="Vector_53" d="M428.82 72.1336C427.829 72.1292 426.841 72.029 425.869 71.8341C424.603 71.5672 423.38 71.1282 422.233 70.5295C421.373 70.0699 420.557 69.533 419.795 68.9255C418.938 68.1653 417.944 67.5771 416.865 67.1931C409.746 64.5975 403.382 60.2766 398.343 54.6175C396.994 53.0617 395.731 51.4339 394.558 49.7412C393.059 47.5075 391.332 45.436 389.404 43.5603C386.519 41.4932 383.183 40.1441 379.673 39.6251L378.261 39.3043C373.77 38.2135 366.134 35.3904 365.429 28.7818C365.407 28.5924 365.437 28.4008 365.517 28.2275C365.596 28.0541 365.721 27.9056 365.878 27.798C366.038 27.6973 366.223 27.644 366.412 27.644C366.602 27.644 366.787 27.6973 366.947 27.798L367.46 27.9904C363.703 24.3359 361.246 19.5504 360.467 14.3668C360.357 13.9675 360.346 13.5474 360.435 13.1429C360.524 12.7384 360.71 12.3618 360.978 12.0457C361.246 11.7296 361.586 11.4836 361.971 11.329C362.355 11.1744 362.771 11.116 363.183 11.1587C369.198 10.7528 375.11 9.39572 380.699 7.13795L383.266 5.91888C388.213 3.25985 393.546 1.39085 399.071 0.3796C402.594 -0.238503 406.209 -0.100514 409.675 0.78442C413.141 1.66935 416.379 3.28101 419.175 5.51253C420.458 4.53753 421.998 3.95928 423.605 3.84907C425.213 3.73886 426.817 4.1015 428.221 4.89229C431.032 6.67531 433.262 9.23957 434.638 12.2709C439.325 20.9727 441.717 30.7257 441.588 40.6089C441.439 47.6239 439.15 57.9966 433.312 64.9475H433.675C434.56 64.9865 435.405 65.326 436.07 65.9099C436.485 66.4292 436.711 67.074 436.711 67.7385C436.711 68.403 436.485 69.0479 436.07 69.5671C435.409 70.3706 434.523 70.9588 433.525 71.2567C432.019 71.8163 430.427 72.1129 428.82 72.1336ZM426.297 69.7382C428.492 70.1918 430.77 70.0365 432.884 69.2891C433.478 69.1315 434.013 68.8045 434.424 68.348C434.526 68.2245 434.591 68.074 434.61 67.9147C434.628 67.7553 434.601 67.5939 434.531 67.4498C434.173 67.2372 433.77 67.1126 433.354 67.0862C432.829 67.0847 432.312 66.9506 431.853 66.6964C431.393 66.4422 431.004 66.076 430.724 65.6319C430.623 65.4358 430.586 65.2134 430.616 64.9952C430.647 64.777 430.744 64.5736 430.895 64.4128C436.969 57.9966 439.3 47.5169 439.45 40.5447C439.607 31.008 437.317 21.5902 432.798 13.1905C431.586 10.5644 429.649 8.33865 427.216 6.77437C426.1 6.10594 424.791 5.83118 423.5 5.99402C422.209 6.15686 421.01 6.74789 420.094 7.67263C419.992 7.78344 419.868 7.8719 419.73 7.93239C419.592 7.99289 419.443 8.02412 419.292 8.02412C419.142 8.02412 418.992 7.99289 418.854 7.93239C418.716 7.8719 418.592 7.78344 418.49 7.67263C415.918 5.39817 412.861 3.74022 409.551 2.82483C406.242 1.90945 402.767 1.76074 399.391 2.39C394.082 3.38181 388.96 5.19282 384.207 7.75818L381.619 8.97724C375.827 11.3653 369.689 12.8095 363.44 13.2547C363.144 13.2544 362.851 13.3202 362.584 13.4472C362.538 13.6441 362.538 13.8491 362.584 14.046C362.992 16.8784 363.959 19.6015 365.427 22.0576C366.896 24.5137 368.837 26.6539 371.139 28.354C371.307 28.4763 371.436 28.6439 371.512 28.8371C371.588 29.0303 371.607 29.2411 371.567 29.4448C371.528 29.6515 371.427 29.8416 371.278 29.9903C371.129 30.1391 370.939 30.2396 370.733 30.2789C369.786 30.4608 368.813 30.4608 367.867 30.2789C369.492 34.4066 375.16 36.3956 378.56 37.2511L379.951 37.5719C383.82 38.1509 387.49 39.663 390.644 41.9777C392.699 43.956 394.535 46.1502 396.119 48.5221C397.244 50.1494 398.457 51.7131 399.755 53.2059C404.559 58.5966 410.62 62.718 417.399 65.2041C418.707 65.6878 419.911 66.4134 420.95 67.3428C421.617 67.879 422.333 68.3516 423.088 68.7544C424.063 69.2506 425.098 69.6173 426.168 69.8451L426.297 69.7382Z" fill="#231F20"/>
<path id="Vector_54" d="M381.063 43.2823C381.063 43.2823 373.128 56.3712 374.967 58.9591C376.807 61.5469 382.56 59.5579 382.56 59.5579" fill="white"/>
<path id="Vector_55" d="M378.453 61.3544C377.651 61.4214 376.843 61.2952 376.099 60.9864C375.355 60.6776 374.696 60.1951 374.176 59.5793C372.037 56.7348 377.726 46.8539 380.207 42.7262C380.28 42.6054 380.376 42.5002 380.49 42.4166C380.604 42.333 380.733 42.2725 380.87 42.2388C381.007 42.205 381.149 42.1986 381.289 42.2198C381.428 42.2411 381.562 42.2896 381.683 42.3626C381.804 42.4356 381.909 42.5317 381.993 42.6454C382.076 42.7591 382.137 42.8881 382.17 43.0252C382.204 43.1622 382.211 43.3046 382.189 43.4441C382.168 43.5836 382.119 43.7176 382.046 43.8383C378.004 50.4897 375.138 57.2695 375.908 58.3174C377.042 59.9001 380.977 58.9805 382.325 58.5313C382.458 58.485 382.599 58.4654 382.74 58.4736C382.881 58.4819 383.019 58.5178 383.146 58.5793C383.273 58.6409 383.387 58.7269 383.481 58.8324C383.575 58.9379 383.647 59.0609 383.693 59.1943C383.74 59.3277 383.759 59.469 383.751 59.61C383.743 59.7509 383.707 59.8889 383.645 60.016C383.584 60.1431 383.498 60.2569 383.392 60.3507C383.287 60.4446 383.164 60.5168 383.03 60.5631C381.555 61.0617 380.011 61.3286 378.453 61.3544Z" fill="#231F20"/>
<path id="Vector_56" d="M382.218 26.3437C377.021 30.9419 378.924 40.1384 379.223 46.1696C379.608 54.6389 380.193 63.1011 380.977 71.5561C381.469 76.9029 395.371 76.4966 397.766 74.7856L397.167 92.6011C397.167 92.6011 400.803 102.289 411.839 96.6647C422.875 91.0398 425.206 83.8324 425.206 83.8324L423.367 59.3013C423.367 59.3013 414.17 59.7076 408.396 48.9713C402.621 38.2349 401.979 21.3604 401.979 21.3604C401.979 21.3604 387.286 21.8737 382.218 26.3437Z" fill="white"/>
<path id="Vector_57" d="M405.465 99.4877C404.273 99.4941 403.091 99.2764 401.979 98.8461C399.349 97.7357 397.265 95.6288 396.183 92.986C396.153 92.845 396.153 92.6993 396.183 92.5583L396.739 76.3896C392.273 77.432 387.6 77.1572 383.287 75.5983C382.423 75.3117 381.657 74.7892 381.075 74.09C380.493 73.3908 380.119 72.5427 379.993 71.6417C379.223 63.2151 378.624 54.6602 378.24 46.2123C378.24 45.2071 378.09 44.0736 378.004 42.9828C377.491 37.08 376.871 29.7228 381.597 25.5523C386.901 20.8685 401.445 20.3552 402.065 20.3338C402.207 20.3234 402.35 20.3449 402.484 20.3967C402.617 20.4485 402.737 20.5293 402.835 20.6332C403.04 20.8298 403.163 21.0977 403.177 21.3818C403.177 21.5529 403.647 38.0852 409.315 48.458C414.769 58.4458 423.046 58.2319 423.366 58.2319C423.506 58.2171 423.648 58.2313 423.782 58.2736C423.916 58.3158 424.041 58.3853 424.147 58.4775C424.253 58.5698 424.339 58.6829 424.4 58.8099C424.461 58.9369 424.495 59.075 424.5 59.2157L426.361 83.6826C426.382 83.8173 426.382 83.9543 426.361 84.089C426.361 84.4098 423.73 91.8525 412.459 97.6057C410.314 98.7895 407.915 99.4353 405.465 99.4877ZM398.258 92.4086C399.156 94.4066 400.764 95.9996 402.771 96.8785C404.198 97.3001 405.7 97.4132 407.175 97.2104C408.649 97.0076 410.064 96.4935 411.325 95.7022C420.821 90.8687 423.644 84.7306 424.158 83.5971L422.383 60.3278C419.688 60.114 412.395 58.6596 407.412 49.4845C402.428 40.3094 401.252 26.4933 400.995 22.5367C397.574 22.7292 386.901 23.6488 382.923 27.1563C379.009 30.6211 379.587 37.358 380.036 42.7904C380.036 43.9667 380.229 45.1002 380.271 46.1268C380.678 54.5319 381.255 63.044 382.046 71.4492C382.046 72.326 382.816 73.0746 384.078 73.5879C388.185 75.4699 395.841 74.7642 397.167 73.8231C397.33 73.7127 397.521 73.6495 397.718 73.6405C397.915 73.6315 398.11 73.6771 398.283 73.7722C398.455 73.8674 398.598 74.0084 398.696 74.1796C398.793 74.3509 398.842 74.5458 398.835 74.7428L398.258 92.4086Z" fill="#231F20"/>
<path id="Vector_58" d="M380.934 65.2255C380.934 65.2255 387.65 69.011 390.901 62.0816L380.934 65.2255Z" fill="white"/>
<path id="Vector_59" d="M384.976 67.3214C383.384 67.2822 381.82 66.8876 380.4 66.1665C380.157 66.0233 379.98 65.7921 379.904 65.521C379.828 65.25 379.86 64.9602 379.993 64.7122C380.06 64.5884 380.151 64.479 380.261 64.3905C380.37 64.3019 380.496 64.2359 380.632 64.1961C380.767 64.1564 380.908 64.1437 381.048 64.1589C381.188 64.174 381.324 64.2167 381.448 64.2845C383.022 65.118 384.846 65.3535 386.581 64.9475C387.341 64.6647 388.032 64.2226 388.607 63.6509C389.183 63.0791 389.629 62.3909 389.917 61.6325C389.977 61.504 390.061 61.3887 390.166 61.2933C390.27 61.1978 390.393 61.124 390.526 61.0763C390.659 61.0285 390.801 61.0077 390.942 61.0151C391.084 61.0225 391.222 61.0578 391.35 61.1192C391.478 61.1766 391.592 61.2591 391.688 61.3617C391.783 61.4643 391.857 61.585 391.904 61.7166C391.952 61.8482 391.973 61.988 391.966 62.1278C391.959 62.2677 391.924 62.4046 391.863 62.5307C391.453 63.5614 390.827 64.492 390.026 65.2595C389.226 66.027 388.269 66.6135 387.222 66.9792C386.497 67.2149 385.739 67.3305 384.976 67.3214Z" fill="#231F20"/>
<path id="Vector_60" d="M397.531 48.0944C397.69 45.9682 398.43 43.9265 399.67 42.1916C400.447 40.7295 401.434 39.3892 402.6 38.2135C403.19 37.637 403.901 37.198 404.681 36.9281C405.461 36.6582 406.292 36.564 407.112 36.6523C407.827 36.8029 408.503 37.1039 409.092 37.5353C409.682 37.9668 410.174 38.5187 410.534 39.1546C411.276 40.4628 411.694 41.9294 411.753 43.432C412.018 46.6107 411.44 49.8031 410.077 52.6869C408.713 55.5707 406.614 58.044 403.99 59.8574L404.439 59.3227" fill="white"/>
<path id="Vector_61" d="M403.99 60.8411C403.84 60.8394 403.692 60.8062 403.555 60.7436C403.419 60.6809 403.297 60.5903 403.198 60.4776C403.027 60.2824 402.932 60.0315 402.932 59.7718C402.932 59.512 403.027 59.2612 403.198 59.066L403.648 58.5527C403.737 58.4448 403.847 58.3567 403.973 58.2941C404.098 58.2315 404.235 58.1958 404.375 58.1891C406.561 56.4298 408.288 54.1655 409.405 51.5911C410.523 49.0168 410.998 46.2094 410.791 43.4106C410.708 42.1141 410.343 40.8513 409.721 39.7106C409.44 39.2044 409.054 38.7635 408.589 38.417C408.125 38.0705 407.592 37.8262 407.027 37.7002C406.365 37.6398 405.699 37.7253 405.074 37.9507C404.45 38.1761 403.882 38.536 403.412 39.0048C402.292 40.1014 401.347 41.3638 400.61 42.7476C399.468 44.3146 398.773 46.1628 398.6 48.0944C398.6 48.3764 398.491 48.6476 398.296 48.8509C398.101 49.0543 397.834 49.1741 397.552 49.1851C397.41 49.1941 397.268 49.1734 397.134 49.1245C397.001 49.0755 396.879 48.9994 396.776 48.9008C396.674 48.8023 396.593 48.6836 396.539 48.5521C396.484 48.4206 396.458 48.2793 396.461 48.1372C396.609 45.823 397.41 43.5981 398.771 41.721C399.58 40.1392 400.633 38.6955 401.894 37.4436C402.599 36.7571 403.45 36.2375 404.382 35.9229C405.315 35.6083 406.306 35.5068 407.283 35.6257C408.153 35.7954 408.976 36.1508 409.695 36.6675C410.415 37.1843 411.015 37.8502 411.454 38.6199C412.256 40.0356 412.724 41.6155 412.823 43.2395C413.104 46.6123 412.491 49.9996 411.045 53.0599C409.599 56.1201 407.372 58.7451 404.589 60.67C404.412 60.789 404.202 60.8489 403.99 60.8411Z" fill="#231F20"/>
<path id="Vector_62" d="M397.702 74.8284C397.702 74.8284 404.845 72.3261 408.01 67.2359C408.01 67.2359 408.01 80.0682 397.103 84.3457L397.702 74.8284Z" fill="#231F20"/>
<path id="Vector_63" d="M397.167 85.3508C396.942 85.3544 396.722 85.2787 396.547 85.137C396.4 85.0349 396.281 84.8967 396.203 84.7357C396.124 84.5747 396.088 84.3962 396.098 84.2173L396.718 74.7214C396.731 74.5127 396.804 74.3124 396.93 74.1451C397.055 73.9779 397.227 73.8511 397.424 73.7804C397.424 73.7804 404.225 71.3209 407.155 66.6371C407.275 66.4348 407.458 66.2777 407.677 66.1901C407.895 66.1026 408.136 66.0895 408.363 66.1528C408.589 66.2161 408.788 66.3524 408.93 66.5405C409.071 66.7285 409.146 66.9579 409.144 67.1931C409.144 67.3428 409.016 80.9023 397.552 85.2867C397.428 85.3286 397.298 85.3503 397.167 85.3508ZM398.793 75.5341L398.343 82.5919C400.52 81.3444 402.39 79.6248 403.815 77.5596C405.24 75.4943 406.184 73.136 406.578 70.6579C404.291 72.7309 401.656 74.3819 398.793 75.5341Z" fill="#231F20"/>
<path id="Vector_64" d="M386.288 40.2072C386.935 40.0718 387.182 38.6311 386.838 36.9893C386.495 35.3476 385.692 34.1264 385.044 34.2618C384.397 34.3972 384.15 35.8378 384.494 37.4796C384.837 39.1214 385.64 40.3425 386.288 40.2072Z" fill="#231F20"/>
<path id="Vector_65" d="M408.502 362.807C408.335 362.806 408.17 362.762 408.024 362.68C407.878 362.597 407.756 362.479 407.668 362.336C405.915 359.256 364.616 287.353 364.188 286.561C364.075 286.337 364.054 286.077 364.13 285.837C364.206 285.597 364.373 285.396 364.595 285.278C364.705 285.219 364.827 285.183 364.951 285.171C365.076 285.16 365.202 285.173 365.322 285.211C365.441 285.249 365.552 285.31 365.648 285.392C365.743 285.473 365.821 285.573 365.878 285.684C366.498 286.839 408.887 360.54 409.315 361.374C409.44 361.593 409.475 361.852 409.411 362.096C409.347 362.34 409.19 362.549 408.973 362.678C408.829 362.76 408.668 362.804 408.502 362.807Z" fill="white"/>
<path id="Vector_66" d="M487.892 477.271C487.892 477.271 498.286 499.342 499.548 499.342C500.809 499.342 567.452 466.406 564.116 464.139C560.779 461.872 514.54 464.139 514.54 464.139L487.892 477.271Z" fill="#233863"/>
<path id="Vector_67" d="M499.548 500.433C498.778 500.433 497.623 500.433 486.929 477.741C486.868 477.618 486.832 477.484 486.824 477.347C486.816 477.209 486.835 477.072 486.881 476.942C486.927 476.812 486.998 476.693 487.091 476.592C487.184 476.49 487.296 476.408 487.421 476.351L514.07 463.198C514.205 463.14 514.35 463.104 514.497 463.091C522.282 462.706 561.25 460.952 564.714 463.284C564.956 463.45 565.136 463.69 565.229 463.968C565.322 464.245 565.321 464.546 565.228 464.823C564.971 465.679 564.265 467.946 532.334 484.435C521.748 489.846 500.745 500.433 499.548 500.433ZM489.303 477.784C492.446 484.757 495.951 491.56 499.804 498.166C506.22 495.664 556.48 470.363 562.64 464.759C557.657 463.776 535.179 464.203 514.818 465.208L489.303 477.784Z" fill="#233863"/>
<path id="Vector_68" d="M437.803 193.377H437.653C437.515 193.362 437.382 193.318 437.26 193.251C437.139 193.183 437.033 193.091 436.947 192.982C436.861 192.872 436.798 192.747 436.762 192.613C436.725 192.479 436.716 192.339 436.733 192.201C440.027 164.398 444.198 111.144 444.24 110.609C444.25 110.469 444.288 110.332 444.35 110.206C444.413 110.08 444.5 109.967 444.606 109.875C444.713 109.782 444.836 109.712 444.97 109.667C445.103 109.623 445.244 109.605 445.385 109.615C445.525 109.624 445.662 109.662 445.788 109.725C445.914 109.787 446.026 109.874 446.119 109.981C446.211 110.087 446.282 110.21 446.326 110.344C446.371 110.477 446.389 110.618 446.379 110.759C446.379 111.293 442.102 164.697 438.851 192.458C438.815 192.711 438.69 192.943 438.497 193.112C438.305 193.281 438.059 193.375 437.803 193.377Z" fill="#231F20"/>
<path id="Vector_69" d="M333.262 166.793C333.108 166.797 332.955 166.767 332.814 166.704C332.674 166.641 332.549 166.547 332.45 166.43C332.35 166.332 332.271 166.216 332.217 166.087C332.163 165.958 332.135 165.82 332.135 165.681C332.135 165.542 332.163 165.404 332.217 165.275C332.271 165.147 332.35 165.03 332.45 164.932L373.877 128.574C374.092 128.387 374.373 128.293 374.658 128.313C374.943 128.333 375.208 128.466 375.395 128.681C375.582 128.897 375.676 129.178 375.656 129.463C375.636 129.747 375.504 130.013 375.288 130.2L333.968 166.451C333.782 166.647 333.531 166.769 333.262 166.793Z" fill="#231F20"/>
<path id="Vector_70" d="M293.14 248.62C292.62 249.525 292.285 250.524 292.153 251.559C292.02 252.594 292.094 253.645 292.37 254.652C292.841 255.61 293.555 256.428 294.441 257.024C295.326 257.621 296.352 257.975 297.417 258.052C305.416 259.036 313.158 248.984 309.908 241.477C305.224 230.719 295.642 243.017 293.14 248.62Z" fill="white"/>
<path id="Vector_71" d="M298.508 259.186C298.102 259.207 297.695 259.207 297.289 259.186C296.034 259.082 294.827 258.65 293.791 257.933C292.755 257.216 291.926 256.239 291.386 255.101C290.732 252.8 291.008 250.334 292.156 248.236C294.038 243.958 299.727 236.216 304.989 236.216C307.491 236.216 309.48 237.884 310.891 241.135C311.654 243.212 311.857 245.453 311.482 247.634C311.107 249.814 310.166 251.858 308.753 253.561C307.592 255.222 306.064 256.594 304.287 257.569C302.511 258.545 300.533 259.098 298.508 259.186ZM304.924 238.29C300.904 238.29 295.813 245.177 294.081 248.984C293.612 249.755 293.303 250.612 293.17 251.505C293.038 252.397 293.086 253.307 293.311 254.181C293.722 254.972 294.333 255.641 295.084 256.122C295.835 256.602 296.698 256.877 297.589 256.919C299.457 257.028 301.321 256.645 302.995 255.808C304.669 254.971 306.094 253.71 307.127 252.149C308.303 250.739 309.091 249.047 309.414 247.239C309.736 245.431 309.582 243.571 308.967 241.841C307.919 239.445 306.593 238.226 305.031 238.226L304.924 238.29Z" fill="#231F20"/>
</g>
</svg>
